<svg xmlns="http://www.w3.org/2000/svg" xmlns:xlink="http://www.w3.org/1999/xlink" width="20" height="18" viewBox="0 0 20 18"><defs><path id="frr2a" d="M1456.4 62.221c.884 0 1.6.725 1.6 1.62a1.61 1.61 0 0 1-1.6 1.62h-.177l-1.172 7.228a1.551 1.551 0 0 1-1.525 1.311h-11.052a1.551 1.551 0 0 1-1.525-1.311l-1.173-7.227h-.176a1.61 1.61 0 0 1-1.6-1.62c0-.896.716-1.62 1.6-1.62h1.273c-.15.85.209 1.745.976 2.226a2.122 2.122 0 0 0 2.948-.703c.279-.456.369-1.001.276-1.524h5.854a2.19 2.19 0 0 0 .275 1.524 2.123 2.123 0 0 0 2.948.703 2.18 2.18 0 0 0 .977-2.227zm-11.579 9.904a.97.97 0 0 0 .807-1.106l-.664-4.485a.963.963 0 0 0-1.092-.818.97.97 0 0 0-.807 1.106l.665 4.486a.965.965 0 0 0 1.091.817zm4.139-5.447a.966.966 0 0 0-.96-.972c-.53 0-.96.435-.96.972v4.485c0 .537.43.973.96.973s.96-.436.96-.973zm3.975.144a.97.97 0 0 0-.807-1.106.96.96 0 0 0-1.092.818l-.664 4.485a.97.97 0 0 0 .95 1.117.964.964 0 0 0 .948-.828zm-10.749-2.925a1.533 1.533 0 0 1-.486-2.094 1.49 1.49 0 0 1 1.158-.711l2.849-4.666a.884.884 0 0 1 1.22-.292.905.905 0 0 1 .288 1.236l-2.85 4.666c.172.433.15.94-.111 1.368-.284.465-.775.72-1.278.72-.27 0-.544-.073-.79-.227zm6.599-6.527a.906.906 0 0 1 .287-1.236.878.878 0 0 1 1.22.292l2.85 4.666c.46.037.897.283 1.158.71a1.533 1.533 0 0 1-.486 2.095c-.247.154-.52.228-.79.228-.503 0-.994-.256-1.278-.72a1.533 1.533 0 0 1-.111-1.369z"/></defs><g><g transform="translate(-1438 -56)"><use fill="#038a62" xlink:href="#frr2a"/></g></g></svg>