<svg xmlns="http://www.w3.org/2000/svg" xmlns:xlink="http://www.w3.org/1999/xlink" width="15" height="15" viewBox="0 0 15 15"><defs><path id="ujhda" d="M873.94 58a4.065 4.065 0 0 1 4.06 4.06v6.88a4.065 4.065 0 0 1-4.06 4.06h-6.88a4.065 4.065 0 0 1-4.06-4.06v-6.88a4.065 4.065 0 0 1 4.06-4.06zM870.5 69.6A4.106 4.106 0 0 0 874.6 65.5a4.106 4.106 0 0 0-4.101-4.101 4.106 4.106 0 0 0-4.101 4.1 4.106 4.106 0 0 0 4.1 4.102zm4.2-7.235a1.213 1.213 0 0 0 0-2.424 1.213 1.213 0 0 0 0 2.424zm-4.2-.088a3.226 3.226 0 0 1 3.222 3.222 3.226 3.226 0 0 1-3.222 3.222 3.226 3.226 0 0 1-3.222-3.222 3.226 3.226 0 0 1 3.222-3.222zm4.2-1.457a.333.333 0 1 1-.001.666.333.333 0 0 1 0-.666z"/></defs><g><g transform="translate(-863 -58)"><use fill="#038a62" xlink:href="#ujhda"/></g></g></svg>