<svg xmlns="http://www.w3.org/2000/svg" xmlns:xlink="http://www.w3.org/1999/xlink" width="16" height="16" viewBox="0 0 16 16"><defs><path id="64foa" d="M1139.992 71.627a.774.774 0 0 1-.237.678l-2.253 2.237a1.27 1.27 0 0 1-.398.288c-.163.08-.324.13-.482.153l-.102.008c-.056.006-.13.009-.22.009-.215 0-.562-.037-1.042-.11-.48-.074-1.067-.255-1.761-.543-.695-.288-1.482-.72-2.363-1.296-.88-.577-1.818-1.368-2.811-2.373-.79-.78-1.446-1.526-1.965-2.237-.52-.712-.937-1.37-1.253-1.975a10.62 10.62 0 0 1-.712-1.644 8.721 8.721 0 0 1-.322-1.271 4.198 4.198 0 0 1-.067-.84c.01-.203.016-.316.016-.338.023-.158.074-.32.153-.483.079-.164.175-.297.288-.399l2.253-2.254a.746.746 0 0 1 .542-.237.63.63 0 0 1 .39.127c.112.085.208.19.287.314l1.812 3.44c.102.18.13.379.085.594a1.055 1.055 0 0 1-.288.542l-.83.83a.282.282 0 0 0-.06.11.42.42 0 0 0-.025.127c.046.238.147.509.305.814.136.271.345.602.627.992.282.39.683.839 1.203 1.347.508.52.96.924 1.355 1.212.395.288.725.5.99.636.266.135.469.217.61.245l.212.043a.4.4 0 0 0 .11-.026.28.28 0 0 0 .11-.06l.965-.982c.204-.18.44-.271.712-.271.192 0 .344.034.457.101h.017l3.269 1.933c.237.147.378.333.423.559z"/></defs><g><g transform="translate(-1124 -59)"><use fill="#038a62" xlink:href="#64foa"/></g></g></svg>