<svg xmlns="http://www.w3.org/2000/svg" xmlns:xlink="http://www.w3.org/1999/xlink" width="23" height="24" viewBox="0 0 23 24"><defs><path id="ff4za" d="M1514.289 1314.903c.944 0 1.71.743 1.71 1.659v17.78c0 .915-.766 1.658-1.71 1.658h-19.578c-.945 0-1.711-.743-1.711-1.659v-17.78c0-.915.766-1.658 1.711-1.658h1.883v-1.245c0-.916.766-1.658 1.711-1.658h.069c.944 0 1.71.742 1.71 1.658v1.245h8.831v-1.245c0-.916.766-1.658 1.711-1.658h.069c.945 0 1.711.742 1.711 1.658v1.245zm-1.164 5.009h-17.25v13.467h17.25zm-14.906 6.094a.27.27 0 0 1-.273-.265v-2.885a.27.27 0 0 1 .273-.266h2.978a.27.27 0 0 1 .274.266v2.885a.27.27 0 0 1-.274.265zm4.792 0a.27.27 0 0 1-.274-.265v-2.885a.27.27 0 0 1 .274-.266h2.978a.27.27 0 0 1 .274.266v2.885a.27.27 0 0 1-.274.265zm4.792 0a.27.27 0 0 1-.274-.265v-2.885a.27.27 0 0 1 .274-.266h2.977a.27.27 0 0 1 .274.266v2.885a.27.27 0 0 1-.274.265zm-9.584 4.644a.27.27 0 0 1-.273-.265v-2.886a.27.27 0 0 1 .273-.265h2.978a.27.27 0 0 1 .274.265v2.886a.27.27 0 0 1-.274.265zm4.792 0a.27.27 0 0 1-.274-.265v-2.886a.27.27 0 0 1 .274-.265h2.978a.27.27 0 0 1 .274.265v2.886a.27.27 0 0 1-.274.265zm4.792 0a.27.27 0 0 1-.274-.265v-2.886a.27.27 0 0 1 .274-.265h2.977a.27.27 0 0 1 .274.265v2.886a.27.27 0 0 1-.274.265z"/></defs><g><g transform="translate(-1493 -1312)"><use fill="#848484" xlink:href="#ff4za"/></g></g></svg>