<svg xmlns="http://www.w3.org/2000/svg">
  <symbol id="arrow" viewBox="0 0 37.8 122.6">
    <path d="M36.6 74.2c0-.1 0-.2.1-.2.4-1.4-1.8-2-2.2-.6-2 6.5-4.1 12.9-6.1 19.4-.3.8-.5 1.6-.8 2.4-1.7 4.6-3.4 9.3-4.9 14 .7-17.3.6-34.7.9-51.9.3-18.5 2.1-38.1-1.6-56.3-.3-1.3-1.9-1-1.9 0-.2 6.9-.3 13.8-.5 20.7L18.7 1c-.1-1.4-2.2-1.4-2.1 0 .7 22 1.4 43.9 2.1 65.8.1 3.2.1 6.4.1 9.7-.1 12.1 0 24.1.1 36.2-.3-1-.7-2.1-1-3.1-3.2-11.4-6.6-22.9-11.6-33.5-.1-.2-.4-.1-.4.2.1.6.3 1.2.4 1.8-.6-1.7-1.3-3.4-1.9-5.2-.4-1.1-2.2-.7-1.8.5 2.1 6.3 4.3 12.7 6.4 19-.8-2-1.6-4-2.4-5.9-1.5-4.1-3-8.2-4.6-12.2-.5-1.2-2.4-.7-1.9.5 1.7 4.6 3.5 9.2 5.3 13.8 3.7 9.8 7.6 19.5 12.3 28.8.4 1 .7 2 1 3 .2.5.5.7.9.7 0 0 0 .1.1.1 0 .1.1.2.2.2l.3.6c.5 1.1 2.3.3 1.9-.8-.1-.3-.2-.5-.3-.8.1.1.2.1.2.2 0 .7 1.1.9 1.4.2.1-.2.1-.5.2-.7 0-.1.1-.1.1-.2v-.2c4.6-13.7 8.9-27.5 13.5-41.2.1-.4 0-.8-.4-1.1.3-.6.5-1.3.8-1.9.4-.8-.2-1.4-1-1.3zM21.5 13.3c.3 5.5.3 11.1.2 16.7-.1 9.5-.3 19.1-.4 28.6-.1 5.4-.2 10.9-.2 16.3-.1-3.8-.3-7.6-.4-11.4.1-16.7.3-33.4.8-50.2z"/>
  </symbol>
  <symbol id="instagramm" viewBox="0 0 15 15">
    <path transform="translate(-863 -58)" d="M873.94 58a4.065 4.065 0 0 1 4.06 4.06v6.88a4.065 4.065 0 0 1-4.06 4.06h-6.88a4.065 4.065 0 0 1-4.06-4.06v-6.88a4.065 4.065 0 0 1 4.06-4.06zM870.5 69.6A4.106 4.106 0 0 0 874.6 65.5a4.106 4.106 0 0 0-4.101-4.101 4.106 4.106 0 0 0-4.101 4.1 4.106 4.106 0 0 0 4.1 4.102zm4.2-7.235a1.213 1.213 0 0 0 0-2.424 1.213 1.213 0 0 0 0 2.424zm-4.2-.088a3.226 3.226 0 0 1 3.222 3.222 3.226 3.226 0 0 1-3.222 3.222 3.226 3.226 0 0 1-3.222-3.222 3.226 3.226 0 0 1 3.222-3.222zm4.2-1.457a.333.333 0 1 1-.001.666.333.333 0 0 1 0-.666z"/>
  </symbol>
  <symbol id="tel" viewBox="0 0 16 16">
    <path transform="translate(-1124 -59)" d="M1139.992 71.627a.774.774 0 0 1-.237.678l-2.253 2.237a1.27 1.27 0 0 1-.398.288c-.163.08-.324.13-.482.153l-.102.008c-.056.006-.13.009-.22.009-.215 0-.562-.037-1.042-.11-.48-.074-1.067-.255-1.761-.543-.695-.288-1.482-.72-2.363-1.296-.88-.577-1.818-1.368-2.811-2.373-.79-.78-1.446-1.526-1.965-2.237-.52-.712-.937-1.37-1.253-1.975a10.62 10.62 0 0 1-.712-1.644 8.721 8.721 0 0 1-.322-1.271 4.198 4.198 0 0 1-.067-.84c.01-.203.016-.316.016-.338.023-.158.074-.32.153-.483.079-.164.175-.297.288-.399l2.253-2.254a.746.746 0 0 1 .542-.237.63.63 0 0 1 .39.127c.112.085.208.19.287.314l1.812 3.44c.102.18.13.379.085.594a1.055 1.055 0 0 1-.288.542l-.83.83a.282.282 0 0 0-.06.11.42.42 0 0 0-.025.127c.046.238.147.509.305.814.136.271.345.602.627.992.282.39.683.839 1.203 1.347.508.52.96.924 1.355 1.212.395.288.725.5.99.636.266.135.469.217.61.245l.212.043a.4.4 0 0 0 .11-.026.28.28 0 0 0 .11-.06l.965-.982c.204-.18.44-.271.712-.271.192 0 .344.034.457.101h.017l3.269 1.933c.237.147.378.333.423.559z"/>
  </symbol>
  <symbol id="cart" viewBox="0 0 20 18">
    <path transform="translate(-1438 -56)" d="M1456.4 62.221c.884 0 1.6.725 1.6 1.62a1.61 1.61 0 0 1-1.6 1.62h-.177l-1.172 7.228a1.551 1.551 0 0 1-1.525 1.311h-11.052a1.551 1.551 0 0 1-1.525-1.311l-1.173-7.227h-.176a1.61 1.61 0 0 1-1.6-1.62c0-.896.716-1.62 1.6-1.62h1.273c-.15.85.209 1.745.976 2.226a2.122 2.122 0 0 0 2.948-.703c.279-.456.369-1.001.276-1.524h5.854a2.19 2.19 0 0 0 .275 1.524 2.123 2.123 0 0 0 2.948.703 2.18 2.18 0 0 0 .977-2.227zm-11.579 9.904a.97.97 0 0 0 .807-1.106l-.664-4.485a.963.963 0 0 0-1.092-.818.97.97 0 0 0-.807 1.106l.665 4.486a.965.965 0 0 0 1.091.817zm4.139-5.447a.966.966 0 0 0-.96-.972c-.53 0-.96.435-.96.972v4.485c0 .537.43.973.96.973s.96-.436.96-.973zm3.975.144a.97.97 0 0 0-.807-1.106.96.96 0 0 0-1.092.818l-.664 4.485a.97.97 0 0 0 .95 1.117.964.964 0 0 0 .948-.828zm-10.749-2.925a1.533 1.533 0 0 1-.486-2.094 1.49 1.49 0 0 1 1.158-.711l2.849-4.666a.884.884 0 0 1 1.22-.292.905.905 0 0 1 .288 1.236l-2.85 4.666c.172.433.15.94-.111 1.368-.284.465-.775.72-1.278.72-.27 0-.544-.073-.79-.227zm6.599-6.527a.906.906 0 0 1 .287-1.236.878.878 0 0 1 1.22.292l2.85 4.666c.46.037.897.283 1.158.71a1.533 1.533 0 0 1-.486 2.095c-.247.154-.52.228-.79.228-.503 0-.994-.256-1.278-.72a1.533 1.533 0 0 1-.111-1.369z"/>
  </symbol>
  <svg id="flower" viewBox="0 0 28 28">
    <path d="M21.8 9.6C27.9 1.3 8.2-5.1 9.1 5.8c-7.9-10.6-12.7 5.8-5.7 8-5.9 1.3-4.1 14.4 8 9.8 2.2 8.5 13.2 3.7 9.7-4.8 9.4 4 8.9-10.4.7-9.2zm-1.7 4.7c-1.3.2-2.6.4-3.9.5 0 .3-.2.6-.3.9.7.7 1.4 1.5 2.1 2.2.6.6-.2 1.5-.8.9-.8-.7-1.5-1.5-2.2-2.3-.4.2-.8.3-1.2.3 0 1.1.3 2.3.2 3.4-.1.8-1.3.8-1.2 0 .1-1.2-.1-2.4-.1-3.5l-.9-.3c-1 .7-1.8 1.6-2.8 2.3-.9.3-1.6-.7-.9-1.1.9-.6 1.7-1.3 2.5-2-.3-.4-.6-.9-.6-1.6v-.1c-1.1-.2-2.3-.3-3.4-.6-.8-.2-.5-1.4.3-1.2 1.1.3 2.2.4 3.2.6.1-.3.2-.5.3-.8-.5-.9-1.2-1.8-1.9-2.6-.6-.7.2-1.6.8-1 .7.8 1.4 1.7 2 2.6.3-.2.6-.3 1-.3.2-1.1.3-2.2.7-3.3.2-.7 1.5-.5 1.2.3-.3 1-.5 2.2-.7 3.3.4.2.9.5 1.2.8.9-.8 1.9-1.5 2.5-2.5.4-.7 1.5-.1 1.1.6-.7 1.1-1.8 1.9-2.8 2.8.2.3.3.5.4.8 1.2-.1 2.4-.3 3.7-.5.9.1 1.3 1.3.5 1.4z"/>
    <path d="M12.2 13.7c.3-.2.4-.5.2-.8-.2-.3-.6-.4-.8-.2-.3.2-.4.5-.2.9.1.2.5.3.8.1zM13.7 13.3c.3-.2.4-.5.2-.8-.2-.3-.6-.4-.8-.2-.3.2-.4.5-.2.8.1.3.5.4.8.2zM11.8 14.1c-.3.2-.4.5-.2.9.2.3.6.4.8.2.3-.2.4-.5.2-.8-.2-.3-.6-.4-.8-.3zM13.2 14.6c-.3.2-.4.5-.2.8.2.3.5.4.8.2.3-.2.4-.5.2-.8-.1-.3-.5-.4-.8-.2zM14.1 13.4c-.3.2-.4.5-.2.8.2.3.5.4.8.2.3-.2.4-.5.2-.8-.1-.3-.5-.4-.8-.2zM13 13.7c-.1-.1-.2-.1-.3-.1-.1.1-.1.2-.1.3.1.1.2.1.3.1.1-.1.1-.2.1-.3zM13.2 13.6c-.1.1-.1.2-.1.3.1.1.2.1.3.1.1-.1.1-.2.1-.3-.1-.1-.2-.2-.3-.1zM13.1 14.4c.1-.1.1-.2.1-.3 0-.1-.2-.1-.3-.1-.1.1-.1.2-.1.3.1.1.2.2.3.1z"/>
  </svg>
  <symbol id="branch" viewBox="0 0 90.6 31.6">
    <path d="M6.3 18.3c8.4-.1 16.7-1.1 25-2 8-.8 16.3-2.4 24.4-2.3 11.5.1 22.9-1 34.4-.3.6 0 .6-1 0-1-11.5-.7-22.9.3-34.4.3-7.8 0-15.7 1.4-23.4 2.2-8.6.9-17.3 2-26 2.1-.7 0-.7 1 0 1z"/>
    <path d="M12.1 11.1c2.3 2.3 5 4.3 7.5 6.3.5.4 1.2-.3.7-.7-2.5-2-5.2-4-7.5-6.3-.5-.5-1.2.2-.7.7zM29 16.4c-1.6 4-3.9 7.7-5.5 11.7-.2.6.7.9 1 .3 1.5-4 3.9-7.7 5.5-11.7.2-.6-.8-.8-1-.3zM34.1 7c3.9 1.7 7 5.2 10.6 7.4-.1-.2-.1-.5-.2-.7-1.9 3.5-4.2 6.9-6.5 10.2-.4.5.5 1 .9.5 2.2-3.3 4.6-6.6 6.5-10.2.1-.2.1-.5-.2-.7-3.6-2.2-6.7-5.8-10.6-7.4-.6-.2-1.1.7-.5.9zM56.9 6.8c3.2 1.9 5.8 4.8 9.1 6.5 0-.3-.1-.5-.1-.8-3 3.7-4.3 8.4-6.4 12.6-.3.6.6 1.1.9.5 2-4.2 3.3-8.8 6.2-12.4.2-.2.2-.6-.1-.8-3.3-1.8-5.9-4.6-9.1-6.5-.5-.3-1 .6-.5.9zM.1 18.6c-.6 2.9 1.3 6.7 5.6 5.1 4-1.5 2.8-7-.9-7.9-2.7-.8-4.3.8-4.7 2.8z"/>
    <path d="M5.8 10c0 2.2 1.3 4.4 3.7 4.4 5.8 0 5.4-8.8 0-8.6C7 5.9 5.8 7.9 5.8 10zM30.7 7.3c1.8 2.2 5.8 3 7-1.2 1.4-4.7-5.2-7-7.5-2.9-.8 1.5-.4 3 .5 4.1zM22.4 30.6c2.4 1.9 6.9 1.3 6.6-2.7-.2-3.6-5.3-5-7.4-1.9-1.1 1.6-.4 3.6.8 4.6zM35.1 27.6c2.8 3.5 9.2 1.4 6.5-3.9-1.7-3.3-6.5-2.3-7.2 1.3-.3 1 .1 1.8.7 2.6zM51.4 3c-.6 3 1.3 6.8 5.6 5.1 4-1.5 2.8-7-.9-7.9-2.7-.8-4.3.8-4.7 2.8zM54.8 28.2c1 2 3.1 3.4 5.3 2.2 5.1-2.6.9-10.3-3.9-7.6-2.1 1.2-2.3 3.5-1.4 5.4z"/>
  </symbol>
</svg>
