<svg viewBox="0 0 28 28" fill="#038a62">
  <path d="M21.8 9.6C27.9 1.3 8.2-5.1 9.1 5.8c-7.9-10.6-12.7 5.8-5.7 8-5.9 1.3-4.1 14.4 8 9.8 2.2 8.5 13.2 3.7 9.7-4.8 9.4 4 8.9-10.4.7-9.2zm-1.7 4.7c-1.3.2-2.6.4-3.9.5 0 .3-.2.6-.3.9.7.7 1.4 1.5 2.1 2.2.6.6-.2 1.5-.8.9-.8-.7-1.5-1.5-2.2-2.3-.4.2-.8.3-1.2.3 0 1.1.3 2.3.2 3.4-.1.8-1.3.8-1.2 0 .1-1.2-.1-2.4-.1-3.5l-.9-.3c-1 .7-1.8 1.6-2.8 2.3-.9.3-1.6-.7-.9-1.1.9-.6 1.7-1.3 2.5-2-.3-.4-.6-.9-.6-1.6v-.1c-1.1-.2-2.3-.3-3.4-.6-.8-.2-.5-1.4.3-1.2 1.1.3 2.2.4 3.2.6.1-.3.2-.5.3-.8-.5-.9-1.2-1.8-1.9-2.6-.6-.7.2-1.6.8-1 .7.8 1.4 1.7 2 2.6.3-.2.6-.3 1-.3.2-1.1.3-2.2.7-3.3.2-.7 1.5-.5 1.2.3-.3 1-.5 2.2-.7 3.3.4.2.9.5 1.2.8.9-.8 1.9-1.5 2.5-2.5.4-.7 1.5-.1 1.1.6-.7 1.1-1.8 1.9-2.8 2.8.2.3.3.5.4.8 1.2-.1 2.4-.3 3.7-.5.9.1 1.3 1.3.5 1.4z"/>
  <path d="M12.2 13.7c.3-.2.4-.5.2-.8-.2-.3-.6-.4-.8-.2-.3.2-.4.5-.2.9.1.2.5.3.8.1zM13.7 13.3c.3-.2.4-.5.2-.8-.2-.3-.6-.4-.8-.2-.3.2-.4.5-.2.8.1.3.5.4.8.2zM11.8 14.1c-.3.2-.4.5-.2.9.2.3.6.4.8.2.3-.2.4-.5.2-.8-.2-.3-.6-.4-.8-.3zM13.2 14.6c-.3.2-.4.5-.2.8.2.3.5.4.8.2.3-.2.4-.5.2-.8-.1-.3-.5-.4-.8-.2zM14.1 13.4c-.3.2-.4.5-.2.8.2.3.5.4.8.2.3-.2.4-.5.2-.8-.1-.3-.5-.4-.8-.2zM13 13.7c-.1-.1-.2-.1-.3-.1-.1.1-.1.2-.1.3.1.1.2.1.3.1.1-.1.1-.2.1-.3zM13.2 13.6c-.1.1-.1.2-.1.3.1.1.2.1.3.1.1-.1.1-.2.1-.3-.1-.1-.2-.2-.3-.1zM13.1 14.4c.1-.1.1-.2.1-.3 0-.1-.2-.1-.3-.1-.1.1-.1.2-.1.3.1.1.2.2.3.1z"/>
</svg>
