<svg id="Layer_4" xmlns="http://www.w3.org/2000/svg" viewBox="0 0 68.1 65">
  <style>
    .st0{fill:#3d3d3a}
  </style>
  <path class="st0" d="M34.1 32.6c-.1-.1-.1-.1-.2-.1-.2-.1-.4 0-.5.2-.2.2-.2.5 0 .7.3.2.8.2.8-.2.1-.3 0-.5-.1-.6z"/>
  <path class="st0" d="M33.9 32.1c0 .7 1 .7 1 0s-1-.7-1 0z"/>
  <path class="st0" d="M68.1 30.2c0-3-1.2-6.4-3.4-8.5.7-4.3-2-8.7-5.9-10.5-1.3-5.4-6.8-7.7-11.9-7.5-.1 0-.2 0-.2.1-1.6-1.5-3.8-2.4-5.9-2.7-1.7-.2-4.8.1-7.1 1.1C29-2 20.5.4 17 5c-6 .7-11.5 5.8-10.6 12.5-.5.4-.9.8-1.3 1.2-2.6 2.6-3.7 6.6-3.2 10.2-2.4 3.6-2.4 7.7-.4 10.8-2 5.4 1.4 10.7 6.4 12.8H8c1.2 3.8 5.8 6.6 9.9 7 0 .1 0 .1.1.2 3.6 6.2 10.8 6.5 16.7 3.6 1.4.4 2.8.5 4.3.4 3-.1 7.3-1.2 8.9-4v-.1c2.4 0 4.8-.7 7.1-2 3.2-1.9 4.1-5.8 4.2-9.2 0-.1 0-.2-.1-.2 1.9-.9 3.5-2.4 4.8-4.6 1-1.6 1.4-3.8 1.4-5.9 1.4-2.5 2.8-4.7 2.8-7.5zm-1 .6c0 1.8-1 3.6-2 5.1-.3-1.7-.9-3.2-1.9-4.4.3-1.3.5-2.7.3-4.3-.1-.6-.2-1.2-.4-1.9.6-.8 1-1.7 1.3-2.6 2 2.3 2.8 5.3 2.7 8.1zm-10.8 7.4c-.2-2.1-1-4-2.3-5.7.8-1.6 1.1-3.4.8-5.3-.2-1.2-.6-2.3-1.1-3.2 1.1-1.7 1.5-3.8 1.3-6 3.6.6 6.1 3.9 7.1 7.4v.1c.3 1 .5 2 .5 3 .2 4.5-2.5 7.8-6.3 9.7zm-16.1 8.6c3.6-1.2 5.2-5 4.9-8.8 3.5.2 6.7-1.7 8.4-4.5 2.9 3.8 2.2 9.2-.9 12.8-3.1 3.6-8.9 3.3-12.4.5zm-9.9 7.1c5 1.9 10.9 1 13.1-4.3 1.7.5 3.6.5 5.4.1 0 9.1-14 11.2-18.5 4.2zm-9 3.9c-2.1-1-3.6-2.8-4.4-4.9-.8-2-1.1-6.3.9-7.8 1.7 1.4 3.9 2.3 6.4 2.6 0 .2.1.4.1.6.6 2.2 2.5 3.9 4.6 5v.1c.8 1.8 2.1 3.2 3.7 4.1-3.3 2.3-7.7 1.9-11.3.3zm-14.6-14v-.7-.3c.1-4.4 2.8-8.9 7.4-9.7l.6.9c.1.2.3.2.4.2-.5 1.5-.8 3.1-.6 4.5.3 2.3 1.2 4.1 2.6 5.5-2.3 1.9-2.3 5.5-1.2 8.5-4.6-.5-8.9-4.2-9.2-8.9zM27.1 6c5.9-1.3 10.6 2.9 11.1 8.5-5.4-1.9-10.8-.6-14.6 3.6-.2.2-.2.4-.1.6h-.2c-1.6-2.9-3.9-4.4-6.3-4.8.5-4.3 6.5-7.1 10.1-7.9zm23.5 4.6c3.1 2.5 4.5 8.8 2.5 12.5-2.2-2.9-6.2-4.1-10.2-4.2-.7-1.7-1.9-3.2-3.7-4-.1-2.1-.6-3.9-1.5-5.4 4.1-1.9 9.3-1.8 12.9 1.1zM53 32.3c0 .1 0 .1 0 0-1.5 3-4.5 5-8 4.7-.1-.9-.4-1.9-.8-2.7.3-.4.5-.8.7-1.4.9-2.7 0-5.1-1.9-6.4.7-2.1.8-4.4.2-6.5 4.2.2 9 1.5 10.3 6 .7 2.2.4 4.5-.5 6.3zM25.9 49.4c-1.5-2.3-1.3-6 .7-7.9.9.1 1.9 0 2.8-.3-.2 3.6 3.9 5.9 8.1 6 .6 0 1.1-.1 1.6-.1 1 1 2.2 1.7 3.4 2.2-1.9 4.5-6.9 5.3-11.2 3.9-2.1-.7-4.2-2-5.4-3.8zM24 46.6c-3.8-.7-7-2.5-8.2-6.4-1.2-3.8.7-10.1 5.5-10 .1 1.3.6 2.6 1.6 3.4-.3.6-.4 1.1-.5 1.8-.1 2.3.4 4.5 2.5 5.6.2.1.3.2.5.2-1.2 1.6-1.6 3.5-1.4 5.4zM28.6 25c.1.1.2.1.3.2 1.7 1 3 2.8 2.9 4.5 0 .2 0 .3.1.4 0 .1-.1.3-.1.4-2.8-1.3-6.6-.1-8.3 2.4-2.1-2.1-1.2-5.7.8-7.5 1.1-1.3 2.8-1.2 4.3-.4zm13.6 1c-1-.5-2.2-.7-3.4-.5-.1-.4-.3-.7-.6-1-2-2.8-5.9-2.7-8.5-1-1-2.6-3-4.1-5.4-4.6 3.2-3.5 7.1-4.7 11.8-3.9 5.5.8 7.5 6.1 6.1 11zm-5 7.3c0-.1-.1-.1-.2-.1.1-.4 0-.7-.1-1 1.9-1.2 2.6-3.6 2.1-5.8 3.2-.2 5.8 2.1 5.2 5.5-.6 3.6-4.9 4.1-7 1.4zM35 40.7c-1.1 0-2.2-.3-2.9-1.2-.3-.4-.4-.8-.5-1.3V38c0-.8.3-1.6.6-2.3.9.3 1.7-.1 2-1 .8.2 1.7-.1 2.3-.7.7.9 1.7 1.5 2.8 1.8.2 2.7-1.5 4.8-4.3 4.9zm-5.4-.6h-.2c-1.1.6-2.5.5-3.7.2-2.2-.7-2.5-3.3-2.2-5.3.4-2.9 4-4.6 6.7-4.1-.2.2-.3.4-.4.8 0 .8.5 1.3 1.2 1.5-.3.6-.2 1.4.4 1.9-.4.9-.7 1.8-.7 2.6l-.1.1c-.5.9-.8 1.6-1 2.3zm7.4-9.3c-.1-.3-.3-.7-.6-.9-.6-.5-1.3-.5-1.8-.1-.2-.4-.6-.8-1.2-.8-.2 0-.4 0-.5.1-.1-1.8-1.3-3.5-2.9-4.5 2.3-1.9 5.9-2 7.7.6.9 1.6.6 4.2-.7 5.6zm-3 2.8c-.2-.1-.6.1-.6.3-.1.7-.4 1.2-1.1.8-.6-.3-.7-.9-.1-1.3.3-.1.3-.4.2-.6.1.1.1.1.2.1.5.1.8-.6.5-.8.3.1.7-.1.7-.5v-.2c.2.3.7.3.9-.2.1-.6.4-.9 1-.6.6.3.5.7-.1 1-.4.2-.3.8.1.9.6.1.5.5.1.8-.4.6-1.2.5-1.8.3zm-2.3-1.9c.1 0 .1 0 0 0h.5c.3 0 .5-.3.5-.6-.2-1.2 1.2-1.5 1-.1v.3c-.3-.3-.9-.2-.9.3 0 .2.1.3.1.3-.3-.1-.7.2-.7.6v.1c-.1-.1-.2-.1-.3-.2-.4 0-1-.2-1.1-.6-.1-.4.8-.2.9-.1zm5.8 14.5c-1.8.1-3.7-.5-5.3-1.4-2.3-1.4-2.2-3.5-1.2-5.5.4 1.2 1.5 2.1 3.3 2.4 3.5.5 6.1-2.4 6-5.7 1.1.1 2.2-.2 3.1-.9 2 5 .2 10.9-5.9 11.1zM28.8 24s.1 0 0 0c.1 0 .1 0 0 0-1.5-.6-3.2-.8-4.6 0-1.8 1-2.9 3.1-3 5.3-2.7-.1-4.7 1.8-5.8 4.2-.2-.3-.3-.5-.5-.8.1-.2 0-.5-.3-.5-1.6-3.5-1-7.7 1.9-10.5 3.7-3.6 10.7-2.7 12.3 2.3zm34 .2c-1.3-3.5-4.2-6.7-7.9-7.2-.3-2-1.1-4-2.2-5.5 7.2-1.8 13.8 6.2 10.1 12.7zm-5.2-13.5c-1.8-.6-3.7-.6-5.6-.1-.2-.3-.5-.5-.7-.7-.6-.5-1.2-1-1.9-1.4-.2-1.5-.8-2.8-1.8-3.9 4.3.1 8.7 1.9 10 6.1zM39.6 2c3.6-.2 7.8 2.5 8.6 6.1-3.5-1.4-7.8-1-11.2.6-1.3-1.7-3.2-3-5.5-3.5.3-.8 1.1-1.4 2-1.8.3.1.5-.1.6-.3 2-.8 4.2-1.1 5.5-1.1zm-6.9.6c-1 .6-1.8 1.4-2.1 2.3-.6-.1-1.3-.1-2-.1-1.5 0-3.4.5-5.1 1.2-1.6-.8-3.4-1.2-5.1-1.1 3.3-3.7 10.3-5.4 14.3-2.3zm-10.4 4c-3.1 1.6-5.8 4.2-6.3 7.2-2.9-.2-6.1 1-8.7 3C6.7 9 15.5 4 22.3 6.6zM6.2 18.9c4.5-4.6 12.1-6.3 15.9-.4-1.8 0-3.6.5-5.2 1.5-4.1 2.5-4.9 8-3.2 12.2-2.6.5-4.5 2-5.8 3.9-2.7-.7-4.4-4.4-4.9-7.1v-.1c.2-.3.1-.5-.2-.6v-.1c-.4-3.5 1-6.7 3.4-9.3zm-4 11.4c.7 2.7 2.5 5.9 5.1 6.8-.8 1.6-1.4 3.3-1.5 5.2-4.6-2.6-6.1-7.6-3.6-12zm0 10.4c.9 1.1 2.1 1.9 3.4 2.6 0 2.2.8 4.3 2.1 6-.1.7-.1 1.4-.1 2-3.9-2-6.6-6.1-5.4-10.6zm6.5 9.6c2 2 4.8 3.4 7.6 3.7.7 1.5 1.7 2.8 2.8 3.6.4.3.9.6 1.3.8-4.7.9-11.9-3-11.7-8.1zm10.4 9.2c.8 0 1.5-.1 2.2-.3.1 0 .2-.1.3-.2 2.7 1.2 5.7 1.5 8.5.7.8 1.5 1.9 2.5 3.3 3.1-5.1 2.2-11.1 1.8-14.3-3.3zm20.4 3.2c-3.2.3-6.8-.3-8.5-3.3.9-.3 1.8-.8 2.6-1.4 2.8 1.3 6.2 1.4 9.2.5 1.3.6 2.6 1 4 1.1-1.5 2.1-4.9 2.8-7.3 3.1zm16-6.8c-2.8 2.9-7.7 3.3-11.3 2 3.3-1.5 5.7-4.4 5.7-8.5v-.1c.7-.3 1.4-.6 2-1h.1c2.3.8 4.4.8 6.3.1-.2 2.9-.8 5.5-2.8 7.5zM63.1 43c-2.1 4.1-6.1 5.6-10.3 4.5 2.4-2.1 3.6-5.1 3.5-8.2h.1c3.1-1.5 5.3-3.7 6.4-6.6.9 1.3 1.3 3 1.4 4.7-.1.1-.1.3 0 .4.1 1.9-.4 3.8-1.1 5.2z"/>
</svg>
